<svg width="79" height="40" viewBox="0 0 79 40" fill="none" xmlns="http://www.w3.org/2000/svg">
<path d="M55.9207 15.6671C55.4185 16.4743 55.9485 15.8931 56.3062 15.6909C59.7776 13.7286 63.0865 13.6531 67.0221 14.243C71.1717 14.8649 74.9268 17.9156 76.3043 21.8521C76.5653 22.5979 76.8703 23.7032 76.9488 24.4799C77.6184 31.1033 71.6166 38 64.7994 38C47.2025 38 29.6058 37.8927 12.0092 37.8927C12.2643 37.6404 10.4153 36.6379 10.166 36.3912C6.47745 32.7424 3.73892 29.2238 2.29922 24.0449C1.54474 21.3309 2.12857 15.6979 5.07006 14.243C7.13689 13.2207 8.71001 13.0095 10.9791 13.0095C12.3887 13.0095 14.7762 14.4453 14.8342 14.1298C15.7089 9.37062 15.1647 5.71268 20.7192 3.51148C26.7006 1.1411 32.5281 1.38176 37.055 5.50165C37.5305 5.93444 38.1764 6.66458 38.6272 7.11048C39.0567 7.53542 39.6531 8.52055 39.9162 9.04109C40.0984 9.40158 39.9903 10.0263 40.633 9.70845C40.633 10.0064 41.0909 9.63656 41.5245 9.14834C46.1071 3.98757 60.5359 8.24819 55.9207 15.6671Z" stroke="#FD0000" stroke-width="3" stroke-linecap="round"/>
</svg>
