<svg width="102" height="64" viewBox="0 0 102 64" fill="none" xmlns="http://www.w3.org/2000/svg">
<path d="M44.275 30.4003C44.275 36.4625 38.9378 41.5671 32.1102 41.5671C25.2826 41.5671 19.9453 36.4625 19.9453 30.4003C19.9453 24.3381 25.2826 19.2334 32.1102 19.2334C38.9378 19.2334 44.275 24.3381 44.275 30.4003Z" stroke="#FD0000" stroke-width="3"/>
<line x1="33.6104" x2="33.6104" y2="12.6669" stroke="#FD0000" stroke-width="3"/>
<line x1="33.6104" y1="48.134" x2="33.6104" y2="60.8009" stroke="#FD0000" stroke-width="3"/>
<line y1="-1.5" x2="13.1116" y2="-1.5" transform="matrix(0.688391 0.72534 -0.774976 0.63199 45.3613 43.3786)" stroke="#FD0000" stroke-width="3"/>
<line y1="-1.5" x2="13.1116" y2="-1.5" transform="matrix(0.688391 0.72534 -0.774976 0.63199 13.6631 6.33337)" stroke="#FD0000" stroke-width="3"/>
<line y1="-1.5" x2="13.6617" y2="-1.5" transform="matrix(-0.999404 0.0345193 -0.0401644 -0.999193 64.2178 30.1647)" stroke="#FD0000" stroke-width="3"/>
<line y1="-1.5" x2="13.6617" y2="-1.5" transform="matrix(-0.999404 0.0345193 -0.0401644 -0.999193 13.6533 30.4006)" stroke="#FD0000" stroke-width="3"/>
<line y1="-1.5" x2="13.1753" y2="-1.5" transform="matrix(-0.73338 0.679819 -0.73338 -0.679819 54.7061 6.92169)" stroke="#FD0000" stroke-width="3"/>
<line y1="-1.5" x2="13.1753" y2="-1.5" transform="matrix(-0.73338 0.679819 -0.73338 -0.679819 18.543 43.0674)" stroke="#FD0000" stroke-width="3"/>
<path d="M78.2455 38.5214C77.7273 39.3618 78.2743 38.7567 78.6434 38.5462C82.2259 36.5034 85.6408 36.4248 89.7023 37.0389C93.9848 37.6863 97.8602 40.8622 99.2817 44.9601C99.551 45.7364 99.8659 46.8871 99.9469 47.6956C100.638 54.5907 94.444 61.7703 87.4085 61.7703C69.2483 61.7703 51.0882 61.6586 32.9282 61.6586C33.1915 61.3959 31.2834 60.3523 31.026 60.0954C27.2194 56.297 24.3932 52.6341 22.9074 47.2428C22.1288 44.4175 22.7313 38.5534 25.767 37.0389C27.9 35.9747 29.5235 35.7548 31.8652 35.7548C33.3199 35.7548 35.7838 37.2495 35.8437 36.921C36.7464 31.9667 36.1848 28.1587 41.9171 25.8673C48.09 23.3997 54.104 23.6502 58.7759 27.9391C59.2666 28.3896 59.9332 29.1497 60.3984 29.6139C60.8417 30.0562 61.4571 31.0818 61.7287 31.6237C61.9167 31.9989 61.8052 32.6493 62.4684 32.3184C62.4684 32.6285 62.941 32.2436 63.3884 31.7353C68.1178 26.3629 83.0085 30.7982 78.2455 38.5214Z" stroke="#FD0000" stroke-width="3" stroke-linecap="round"/>
</svg>
