<svg width="104" height="75" viewBox="0 0 104 75" fill="none" xmlns="http://www.w3.org/2000/svg">
<path d="M73.8943 20.3816C73.2247 21.4674 73.9314 20.6856 74.4083 20.4137C79.0368 17.7745 83.4487 17.6729 88.6961 18.4663C94.229 19.3028 99.2358 23.4059 101.072 28.7003C101.42 29.7032 101.827 31.1899 101.932 32.2345C102.825 41.1427 94.8221 50.4185 85.7325 50.4185C62.27 50.4185 38.8077 50.2742 15.3455 50.2742C15.6857 49.9348 13.2205 48.5865 12.8879 48.2547C7.96993 43.3473 4.31857 38.6148 2.39896 31.6495C1.39299 27.9992 2.17143 20.423 6.09341 18.4663C8.84919 17.0913 10.9467 16.8073 13.9722 16.8073C15.8516 16.8073 19.0349 18.7384 19.1122 18.314C20.2785 11.9132 19.5529 6.99341 26.9589 4.03288C34.9341 0.844809 42.7041 1.16849 48.74 6.70958C49.3741 7.29165 50.2352 8.27367 50.8362 8.87338C51.409 9.44491 52.2041 10.7699 52.5549 11.47C52.7978 11.9548 52.6538 12.7951 53.5106 12.3675C53.5106 12.7682 54.1212 12.2709 54.6993 11.6142C60.8095 4.6732 80.0479 10.4035 73.8943 20.3816Z" stroke="#FD0000" stroke-width="3" stroke-linecap="round"/>
<path d="M24.0894 61.8343C23.292 55.3846 23.2918 53.805 21.6563 60.9826C20.626 63.5114 24.0894 63.7369 24.0894 61.8343Z" stroke="#FD0000" stroke-width="3" stroke-linecap="round"/>
<path d="M74.2105 68.6469C73.4131 62.1972 73.4129 60.6177 71.7774 67.7953C70.7471 70.3241 74.2105 70.5495 74.2105 68.6469Z" stroke="#FD0000" stroke-width="3" stroke-linecap="round"/>
<path d="M84.4303 60.8611C83.6328 54.4113 83.6326 52.8318 81.9971 60.0094C80.9669 62.5382 84.4303 62.7636 84.4303 60.8611Z" stroke="#FD0000" stroke-width="3" stroke-linecap="round"/>
<path d="M65.4517 59.6445C64.6543 53.1948 64.6541 51.6152 63.0186 58.7929C61.9884 61.3217 65.4517 61.5471 65.4517 59.6445Z" stroke="#FD0000" stroke-width="3" stroke-linecap="round"/>
<path d="M60.3424 72.0533C59.5449 65.6035 59.5447 64.024 57.9092 71.2016C56.879 73.7304 60.3424 73.9558 60.3424 72.0533Z" stroke="#FD0000" stroke-width="3" stroke-linecap="round"/>
<path d="M52.0699 59.6445C51.2724 53.1948 51.2723 51.6152 49.6368 58.7929C48.6065 61.3217 52.0699 61.5471 52.0699 59.6445Z" stroke="#FD0000" stroke-width="3" stroke-linecap="round"/>
<path d="M43.067 66.4572C42.2695 60.0074 42.2694 58.4279 40.6338 65.6055C39.6036 68.1343 43.067 68.3597 43.067 66.4572Z" stroke="#FD0000" stroke-width="3" stroke-linecap="round"/>
<path d="M30.4156 72.0533C29.6181 65.6035 29.618 64.024 27.9825 71.2016C26.9522 73.7304 30.4156 73.9558 30.4156 72.0533Z" stroke="#FD0000" stroke-width="3" stroke-linecap="round"/>
<path d="M35.2818 59.6445C34.4844 53.1948 34.4842 51.6152 32.8487 58.7929C31.8184 61.3217 35.2818 61.5471 35.2818 59.6445Z" stroke="#FD0000" stroke-width="3" stroke-linecap="round"/>
</svg>
