<svg width="51" height="48" viewBox="0 0 51 48" fill="none" xmlns="http://www.w3.org/2000/svg">
<path d="M34.1402 23.6696C34.1402 28.183 30.1575 32.0321 25.0008 32.0321C19.844 32.0321 15.8613 28.183 15.8613 23.6696C15.8613 19.1563 19.844 15.3072 25.0008 15.3072C30.1575 15.3072 34.1402 19.1563 34.1402 23.6696Z" stroke="#FD0000" stroke-width="3"/>
<line x1="26.501" x2="26.501" y2="9.86242" stroke="#FD0000" stroke-width="3"/>
<line x1="26.501" y1="37.4771" x2="26.501" y2="47.3395" stroke="#FD0000" stroke-width="3"/>
<line y1="-1.5" x2="10.2087" y2="-1.5" transform="matrix(0.688391 0.72534 -0.774976 0.631991 35.3184 33.7746)" stroke="#FD0000" stroke-width="3"/>
<line y1="-1.5" x2="10.2087" y2="-1.5" transform="matrix(0.688391 0.72534 -0.774976 0.631991 10.6377 4.93118)" stroke="#FD0000" stroke-width="3"/>
<line y1="-1.5" x2="10.637" y2="-1.5" transform="matrix(-0.999404 0.0345193 -0.0401644 -0.999193 50 23.4862)" stroke="#FD0000" stroke-width="3"/>
<line y1="-1.5" x2="10.637" y2="-1.5" transform="matrix(-0.999404 0.0345193 -0.0401644 -0.999193 10.6309 23.6699)" stroke="#FD0000" stroke-width="3"/>
<line y1="-1.5" x2="10.2583" y2="-1.5" transform="matrix(-0.73338 0.679819 -0.73338 -0.679819 42.5938 5.38922)" stroke="#FD0000" stroke-width="3"/>
<line y1="-1.5" x2="10.2583" y2="-1.5" transform="matrix(-0.73338 0.679819 -0.73338 -0.679819 14.4375 33.5322)" stroke="#FD0000" stroke-width="3"/>
</svg>
